<?xml version="1.0" encoding="UTF-8"?>
<svg id="SVGRoot" width="115.3mm" height="117.39mm" version="1.1" viewBox="0 0 115.3 117.39" xmlns="http://www.w3.org/2000/svg">
 <g transform="translate(-2.4092 -64.619)" display="none">
  <rect x="2.5673" y="64.777" width="114.99" height="117.07" fill="#800000" stroke="#ffe56d" stroke-linecap="round" stroke-linejoin="round" stroke-width=".31616"/>
 </g>
 <g transform="translate(-2.4092 -64.619)">
  <path transform="matrix(.97629 0 0 .99061 .17505 4.8857)" d="m8.4746 67.213c-0.73616 0.22573-1.225 0.99028-1.0586 1.7578v101.94c0.23806 1.0629 1.489 1.1599 2.377 1.0586h104.23c1.0629-0.23806 1.1599-1.489 1.0586-2.377v-101.32c-0.21337-0.97567-1.317-1.1656-2.1582-1.0586z" fill="#fff" stroke="#0000c8" stroke-linecap="round" stroke-linejoin="round" stroke-width="2.5" style="mix-blend-mode:difference"/>
 </g>
 <g transform="translate(-2.4092 -64.619)">
  <rect x="26.458" y="86.969" width="42.333" height="72.76" fill="#fff" stroke-opacity="0"/>
  <path transform="scale(.26458)" d="m190.91 240.46c-0.16815-0.29736-11.467 37.392-26.5 88.236h11.932c14.974-87.508 14.965-87.535 14.568-88.236zm-14.568 88.236c-1.0821 6.3238-1.6101 9.4202-2.8613 16.732-7.6144 44.498-13.862 81.378-13.883 81.955-0.0302 0.85149 3.0777-0.47326 16.551-7.0762 10.613-5.1977 16.652-7.8745 16.762-7.4297 0.0942 0.38264-3.3336 12.567-7.6172 27.08-4.2836 14.513-20.578 69.916-36.209 123.12-5.3086 18.068-8.3678 28.48-11.936 40.623h215.86v-275zm-39.193 275h-8.3144c-2.8067 16.4-5.465 32.019-8.1094 47.41-0.969 5.6397-1.5652 10.47-1.3242 10.732 0.469 0.51092-0.53575 4.0894 17.748-58.143zm-8.3144 0c11.043-64.526 22.119-129.56 22.064-129.79-0.0485-0.19616-7.6934 3.2753-16.99 7.7148l-16.904 8.0703 36.766-124.95c3.7604-12.78 7.2065-24.436 10.641-36.051h-64.406v275z" fill="#0000c8" stroke-width=".64184"/>
 </g>
</svg>
