<?xml version="1.0" encoding="UTF-8"?>
<svg id="SVGRoot" width="265.07mm" height="122.2mm" version="1.1" viewBox="0 0 265.07 122.2" xmlns="http://www.w3.org/2000/svg">
 <g transform="translate(-7.693 -57.964)" display="none">
  <rect x="7.9375" y="58.208" width="264.58" height="121.71" fill="#800000" stroke="#ffe56d" stroke-linecap="round" stroke-linejoin="round" stroke-width=".489"/>
 </g>
 <g transform="translate(-7.693 -57.964)">
  <rect x="26.458" y="86.969" width="42.333" height="72.76" fill="#fff" stroke-opacity="0"/>
  <g transform="scale(.97261 1.0282)" stroke-width=".50218" aria-label="High Voltage Technology">
   <path d="m74.792 140.67h2.1731v5.8208h5.0253v-5.8208h2.1731v14.261h-2.1731v-6.6164h-5.0253v6.6164h-2.1731z"/>
   <path d="m85.857 146.02h2.1731v8.9059h-2.1731zm1.0672-1.6686q-0.60149 0-1.0089-0.40745-0.40746-0.40746-0.40746-1.009 0-0.54328 0.40746-0.93133 0.40746-0.38806 1.0089-0.38806 0.58208 0 0.98954 0.38806 0.40746 0.38805 0.40746 0.93133 0 0.60149-0.40746 1.009-0.38806 0.40745-0.98954 0.40745z"/>
   <path d="m93.934 159.58q-0.98954 0-1.9597-0.27164-0.95074-0.27164-1.3582-0.50447l0.46567-1.9403q1.2806 0.83432 2.794 0.83432 1.1642 0 1.9597-0.56268 0.79552-0.56268 0.81492-2.1925v-1.591q-0.40746 0.75671-1.3194 1.2612-0.91193 0.50447-2.0179 0.50447-1.1642 0-2.1343-0.56268-0.97014-0.58209-1.5328-1.6492-0.56268-1.0672-0.56268-2.4836 0-1.3582 0.52388-2.406 0.54328-1.0672 1.5328-1.6492 0.98954-0.58209 2.3089-0.58209 0.77611 0 1.4552 0.27164t1.1448 0.6791q0.48507 0.38805 0.64029 0.77611l0.0388-1.494h1.9791v8.8477q0 2.2701-1.1642 3.4925-1.1642 1.2224-3.6089 1.2224zm-0.03881-6.2283q1.106 0 1.8627-0.75671 0.75671-0.77611 0.75671-2.0179v-0.13582q0-0.83432-0.34925-1.494-0.34925-0.6597-0.95074-1.0284t-1.3194-0.36865q-1.2418 0-1.9209 0.81491-0.6791 0.79552-0.6791 2.0761 0 1.3 0.6597 2.1149 0.6791 0.79551 1.9403 0.79551z"/>
   <path d="m100.15 140.67h2.0373v5.3552l-0.0776 1.6492q0.36865-0.81491 1.1836-1.3388 0.81491-0.54328 1.9015-0.54328 1.3776 0 2.1149 0.58209 0.7373 0.56268 0.98954 1.591 0.25224 1.0283 0.25224 2.6776v4.288h-2.0761v-4.3074q0-1.1254-0.13582-1.7657-0.11642-0.64029-0.50448-0.97014-0.36865-0.32984-1.0866-0.32984-0.58209 0-1.1836 0.34925-0.58209 0.34925-0.97014 1.0284-0.38806 0.65969-0.38806 1.5716v4.4238h-2.0567z"/>
   <path d="m111.61 140.67h2.4642l4.2686 9.7984 4.288-9.7984h2.4448l-6.5776 14.261h-0.29104z"/>
   <path d="m127.79 155.12q-1.3776 0-2.4448-0.62089-1.0672-0.62089-1.6492-1.688-0.58209-1.0672-0.58209-2.3672 0-1.2806 0.56268-2.3477 0.58209-1.0672 1.6492-1.688t2.4642-0.62089q1.397 0 2.4448 0.62089 1.0672 0.62089 1.6298 1.688 0.58209 1.0672 0.58209 2.3477 0 1.3-0.58209 2.3672-0.58208 1.0672-1.6492 1.688-1.0478 0.62089-2.4254 0.62089zm0.0582-1.7074q1.1254 0 1.7657-0.83432 0.65969-0.83432 0.65969-2.0955t-0.6985-2.1149q-0.6985-0.87312-1.8433-0.87312-1.106 0-1.7851 0.85372-0.6597 0.85372-0.6597 2.1343 0 1.2418 0.71791 2.0955 0.7179 0.83432 1.8433 0.83432z"/>
   <path d="m133.52 140.67h2.0761v14.261h-2.0761z"/>
   <path d="m137.99 147.73h-1.5716v-1.7074h1.5716v-3.6283l2.1149-0.46567v4.094h2.0567v1.7074h-2.0567v7.1984h-2.1149z"/>
   <path d="m146.47 155.12q-1.203 0-2.2313-0.56268-1.009-0.58209-1.6298-1.6298-0.60149-1.0672-0.60149-2.4836 0-1.397 0.52388-2.4448 0.54328-1.0478 1.5328-1.6298 0.98954-0.58209 2.3283-0.58209 0.77611 0 1.4552 0.27164t1.1448 0.6791q0.46567 0.38805 0.62089 0.77611l0.0388-1.494h1.9985v8.9059h-1.9791l-0.0388-1.5716q-0.32984 0.6985-1.203 1.2418-0.87312 0.52388-1.9597 0.52388zm0.34925-1.7462q1.106 0 1.8627-0.75671 0.75671-0.77611 0.75671-2.0179v-0.13582q0-0.83432-0.34925-1.494-0.34925-0.65969-0.95074-1.0284-0.60149-0.36865-1.3194-0.36865-1.2418 0-1.9209 0.81492-0.6791 0.79551-0.6791 2.0761 0 1.3 0.6597 2.1149 0.6791 0.79552 1.9403 0.79552z"/>
   <path d="m157.46 159.58q-0.98954 0-1.9597-0.27164-0.95074-0.27164-1.3582-0.50447l0.46566-1.9403q1.2806 0.83432 2.794 0.83432 1.1642 0 1.9597-0.56268 0.79551-0.56268 0.81492-2.1925v-1.591q-0.40746 0.75671-1.3194 1.2612-0.91194 0.50447-2.0179 0.50447-1.1642 0-2.1343-0.56268-0.97014-0.58209-1.5328-1.6492-0.56269-1.0672-0.56269-2.4836 0-1.3582 0.52388-2.406 0.54328-1.0672 1.5328-1.6492 0.98954-0.58209 2.3089-0.58209 0.77612 0 1.4552 0.27164 0.6791 0.27164 1.1448 0.6791 0.48507 0.38805 0.64029 0.77611l0.0388-1.494h1.9791v8.8477q0 2.2701-1.1642 3.4925-1.1642 1.2224-3.6089 1.2224zm-0.0388-6.2283q1.106 0 1.8627-0.75671 0.75671-0.77611 0.75671-2.0179v-0.13582q0-0.83432-0.34925-1.494-0.34925-0.6597-0.95074-1.0284t-1.3194-0.36865q-1.2418 0-1.9209 0.81491-0.6791 0.79552-0.6791 2.0761 0 1.3 0.6597 2.1149 0.6791 0.79551 1.9403 0.79551z"/>
   <path d="m167.79 155.12q-1.591 0-2.6582-0.62089-1.0672-0.64029-1.5716-1.688-0.50448-1.0672-0.50448-2.3283 0-1.4164 0.58209-2.4836 0.60149-1.0672 1.6492-1.6298 1.0478-0.58209 2.3671-0.58209 2.0567 0 3.0462 1.1448 1.0089 1.1254 1.0089 3.1821 0 0.52387-0.0582 1.0866h-6.4029q0.21343 1.1836 0.83432 1.7074 0.64029 0.52387 1.7657 0.52387 0.93133 0 1.5328-0.15522 0.60148-0.15522 1.106-0.42686l0.64029 1.494q-0.48507 0.31044-1.3194 0.54327-0.83432 0.23284-2.0179 0.23284zm1.8821-5.3746q0.0194-1.203-0.52388-1.688-0.54327-0.50447-1.5522-0.50447-2.0373 0-2.3477 2.1925z"/>
   <path d="m178.84 142.57h-3.6477v-1.9015h9.488v1.9015h-3.6865v12.36h-2.1537z"/>
   <path d="m187.96 155.12q-1.591 0-2.6582-0.62089-1.0672-0.64029-1.5716-1.688-0.50447-1.0672-0.50447-2.3283 0-1.4164 0.58208-2.4836 0.60149-1.0672 1.6492-1.6298 1.0478-0.58209 2.3671-0.58209 2.0567 0 3.0462 1.1448 1.009 1.1254 1.009 3.1821 0 0.52387-0.0582 1.0866h-6.4029q0.21344 1.1836 0.83432 1.7074 0.6403 0.52387 1.7657 0.52387 0.93133 0 1.5328-0.15522t1.106-0.42686l0.64029 1.494q-0.48507 0.31044-1.3194 0.54327-0.83432 0.23284-2.0179 0.23284zm1.8821-5.3746q0.0194-1.203-0.52387-1.688-0.54328-0.50447-1.5522-0.50447-2.0373 0-2.3477 2.1925z"/>
   <path d="m196.9 155.12q-1.3194 0-2.3865-0.56268-1.0478-0.58209-1.6686-1.6492-0.62088-1.0866-0.62088-2.5418 0-1.3776 0.56268-2.4059 0.58208-1.0478 1.6104-1.6104 1.0478-0.56268 2.406-0.56268 1.0283 0 1.7656 0.27164 0.75671 0.25224 1.1836 0.64029l-0.93133 1.688q-0.81492-0.81492-1.8433-0.81492-1.2418 0-1.9015 0.75671-0.6403 0.75671-0.6403 2.0179 0 1.4358 0.6597 2.2313 0.6791 0.79552 1.8821 0.79552 0.60149 0 1.1642-0.17463 0.58208-0.17462 0.89253-0.40746l0.75671 1.4746q-0.42686 0.32984-1.203 0.60148-0.75671 0.25224-1.688 0.25224z"/>
   <path d="m200.46 140.67h2.0373v5.3552l-0.0776 1.6492q0.36866-0.81491 1.1836-1.3388 0.81491-0.54328 1.9015-0.54328 1.3776 0 2.1149 0.58209 0.7373 0.56268 0.98954 1.591 0.25223 1.0283 0.25223 2.6776v4.288h-2.0761v-4.3074q0-1.1254-0.13581-1.7657-0.11642-0.64029-0.50448-0.97014-0.36865-0.32984-1.0866-0.32984-0.58209 0-1.1836 0.34925-0.58208 0.34925-0.97014 1.0284-0.38805 0.65969-0.38805 1.5716v4.4238h-2.0567z"/>
   <path d="m210.19 146.02h2.0567l0.0194 1.6298q0.36865-0.81492 1.1642-1.3388 0.79551-0.52388 1.8627-0.52388 1.3776 0 2.1149 0.58209 0.73731 0.56268 0.98954 1.591 0.25224 1.0283 0.25224 2.6776v4.288h-2.0955v-4.2298q0-1.688-0.32985-2.4254-0.32985-0.75671-1.3582-0.75671-0.58208 0-1.1836 0.36865-0.60148 0.34925-1.0089 1.0284-0.38806 0.6791-0.38806 1.591v4.4238h-2.0955z"/>
   <path d="m224.17 155.12q-1.3776 0-2.4448-0.62089-1.0672-0.62089-1.6492-1.688-0.58209-1.0672-0.58209-2.3672 0-1.2806 0.56269-2.3477 0.58208-1.0672 1.6492-1.688 1.0672-0.62089 2.4642-0.62089t2.4448 0.62089q1.0672 0.62089 1.6298 1.688 0.58208 1.0672 0.58208 2.3477 0 1.3-0.58208 2.3672-0.58209 1.0672-1.6492 1.688-1.0478 0.62089-2.4254 0.62089zm0.0582-1.7074q1.1254 0 1.7656-0.83432 0.6597-0.83432 0.6597-2.0955t-0.6985-2.1149q-0.6985-0.87312-1.8433-0.87312-1.106 0-1.7851 0.85372-0.65969 0.85372-0.65969 2.1343 0 1.2418 0.7179 2.0955 0.7179 0.83432 1.8433 0.83432z"/>
   <path d="m229.89 140.67h2.0761v14.261h-2.0761z"/>
   <path d="m237.74 155.12q-1.3776 0-2.4448-0.62089t-1.6492-1.688q-0.58208-1.0672-0.58208-2.3672 0-1.2806 0.56268-2.3477 0.58208-1.0672 1.6492-1.688 1.0672-0.62089 2.4642-0.62089 1.397 0 2.4448 0.62089 1.0672 0.62089 1.6298 1.688 0.58209 1.0672 0.58209 2.3477 0 1.3-0.58209 2.3672-0.58208 1.0672-1.6492 1.688-1.0478 0.62089-2.4254 0.62089zm0.0582-1.7074q1.1254 0 1.7657-0.83432 0.65969-0.83432 0.65969-2.0955t-0.6985-2.1149q-0.6985-0.87312-1.8433-0.87312-1.106 0-1.7851 0.85372-0.6597 0.85372-0.6597 2.1343 0 1.2418 0.71791 2.0955 0.7179 0.83432 1.8433 0.83432z"/>
   <path d="m247.87 159.58q-0.98955 0-1.9597-0.27164-0.95073-0.27164-1.3582-0.50447l0.46567-1.9403q1.2806 0.83432 2.794 0.83432 1.1642 0 1.9597-0.56268 0.79552-0.56268 0.81492-2.1925v-1.591q-0.40746 0.75671-1.3194 1.2612-0.91193 0.50447-2.0179 0.50447-1.1642 0-2.1343-0.56268-0.97014-0.58209-1.5328-1.6492t-0.56268-2.4836q0-1.3582 0.52387-2.406 0.54328-1.0672 1.5328-1.6492 0.98955-0.58209 2.3089-0.58209 0.77611 0 1.4552 0.27164 0.67909 0.27164 1.1448 0.6791 0.48507 0.38805 0.64029 0.77611l0.0388-1.494h1.9791v8.8477q0 2.2701-1.1642 3.4925-1.1642 1.2224-3.6089 1.2224zm-0.0388-6.2283q1.106 0 1.8627-0.75671 0.75671-0.77611 0.75671-2.0179v-0.13582q0-0.83432-0.34925-1.494-0.34925-0.6597-0.95074-1.0284t-1.3194-0.36865q-1.2418 0-1.9209 0.81491-0.67909 0.79552-0.67909 2.0761 0 1.3 0.65969 2.1149 0.6791 0.79551 1.9403 0.79551z"/>
   <path d="m256.58 155.2-3.6865-9.1775h2.3672l1.9015 5.6656 0.42686 1.3776 0.42686-1.3776 1.9985-5.6656h2.2895l-5.4716 13.795h-2.1731z"/>
  </g>
  <g transform="scale(1.0472 .95492)" stroke-width=".83298" aria-label="Picardi">
   <path d="m81.646 126.42v20.616h-11.987v-55.992h12.924q7.6921 0 11.401 1.9523 3.7484 1.9523 3.7484 7.9654v15.54q0 5.5055-3.0456 7.8092-3.0456 2.2647-13.041 2.1085zm4.0998-10.972v-13.432q0-2.9675-4.0998-2.9675v19.367q4.0998 0 4.0998-2.9675z"/>
   <path d="m111.61 99.201h-11.128v-8.1606h11.128zm0 47.831h-11.128v-45.333h11.128z"/>
   <path d="m140.8 121.77h-11.089v-11.128q0-2.2256-1.9133-2.2256-1.9523 0-1.9523 2.2256v27.762q0 2.3037 1.9523 2.3037 1.9133 0 1.9133-2.3037v-10.972h11.089v11.05q0 9.1758-12.846 9.1758-13.198 0-13.198-9.5663v-27.137q0-9.5663 13.198-9.5663 12.846 0 12.846 9.1758z"/>
   <path d="m170.33 147.03h-9.8396v-1.7571q-1.2495 2.3818-7.1454 2.3818-9.0977 0-9.0977-7.1064v-9.0977q0-3.0456 2.1866-5.3103 2.2256-2.2647 8.9025-5.6617 3.8656-1.9523 3.8656-3.1237v-6.7159q0-2.2256-1.9133-2.2256-2.1866 0-2.1866 5.4274 0 0.97615 0.11714 2.8894 0.15619 1.9133 0.15619 2.8894h-10.738v-9.0587q0-9.1758 13.276-9.1758 12.417 0 12.417 9.5663zm-11.128-8.473v-11.675q-3.8265 0.93711-3.8265 3.4361v8.2387q0 2.0694 1.9914 2.0694 1.8352 0 1.8352-2.0694z"/>
   <path d="m200.14 120.48h-11.128v-9.8396q0-2.0694-1.9133-2.0694-1.9132 0-1.9132 1.9914v36.469h-11.128v-45.333h11.128v1.5228q2.2256-1.8352 6.8721-1.8352 3.3189 0 5.7007 1.7961 2.3818 1.7571 2.3818 4.6465z"/>
   <path d="m229.09 147.03h-8.3949l-0.9371-1.5228q-2.8504 2.1475-6.4816 2.1475-4.256 0-7.2626-1.9914-2.9675-1.9914-2.9675-5.4274v-32.564q0-2.8894 2.3428-4.5684 2.3818-1.718 5.7398-1.718 4.6074 0 6.8721 1.679v-12.026h11.089zm-11.089-8.473v-28.152q0-1.9914-1.9133-1.9914-1.9523 0-1.9523 2.0694v28.074q0 2.0694 1.9523 2.0694 1.9133 0 1.9133-2.0694z"/>
   <path d="m243.32 99.201h-11.128v-8.1606h11.128zm0 47.831h-11.128v-45.333h11.128z"/>
  </g>
  <path transform="scale(.26458)" d="m190.91 240.46c-0.16815-0.29736-11.467 37.392-26.5 88.236h11.932c14.974-87.508 14.965-87.535 14.568-88.236zm-14.568 88.236c-1.0821 6.3238-1.6101 9.4202-2.8613 16.732-7.6144 44.498-13.862 81.378-13.883 81.955-0.0302 0.85149 3.0777-0.47326 16.551-7.0762 10.613-5.1977 16.652-7.8745 16.762-7.4297 0.0942 0.38264-3.3336 12.567-7.6172 27.08-4.2836 14.513-20.578 69.916-36.209 123.12-5.3086 18.068-8.3678 28.48-11.936 40.623h122.86v-275zm-39.193 275h-8.3144c-2.8067 16.4-5.465 32.019-8.1094 47.41-0.969 5.6397-1.5652 10.47-1.3242 10.732 0.469 0.51092-0.53575 4.0894 17.748-58.143zm-8.3144 0c11.043-64.526 22.119-129.56 22.064-129.79-0.0485-0.19616-7.6934 3.2753-16.99 7.7148l-16.904 8.0703 36.766-124.95c3.7604-12.78 7.2065-24.436 10.641-36.051h-64.406v275z" fill="#0000c8" stroke-width=".64184"/>
 </g>
</svg>
