<?xml version="1.0" encoding="UTF-8"?>
<svg id="SVGRoot" width="223.27mm" height="114mm" version="1.1" viewBox="0 0 223.27 114" xmlns="http://www.w3.org/2000/svg">
 <g transform="translate(-24.891 -62.197)" display="none">
  <rect x="25.108" y="62.414" width="222.83" height="113.56" fill="#800000" stroke="#ffe56d" stroke-linecap="round" stroke-linejoin="round" stroke-width=".43348"/>
 </g>
 <g transform="translate(-24.891 -62.197)">
  <rect x="26.458" y="86.969" width="42.333" height="72.76" fill="#fff" stroke-opacity="0"/>
 </g>
 <g transform="translate(-24.891 -62.197)" display="none">
  <text transform="scale(.97261 1.0282)" x="73.298058" y="154.92691" display="inline" fill="#000000" font-family="'Reem Kufi'" font-size="16.07px" letter-spacing="0px" stroke-width=".50218" word-spacing="0px" style="font-feature-settings:normal;font-variant-caps:normal;font-variant-ligatures:normal;font-variant-numeric:normal;line-height:12.5544px" xml:space="preserve"><tspan x="73.298058" y="154.92691" dx="0" stroke-width=".50218" word-spacing="0px" style="font-feature-settings:normal;font-variant-caps:normal;font-variant-ligatures:normal;font-variant-numeric:normal">Highvoltage te<tspan font-family="Alata" font-size="19.403px" letter-spacing="-1.4182px" style="font-feature-settings:normal;font-variant-caps:normal;font-variant-ligatures:normal;font-variant-numeric:normal">c</tspan>hnol<tspan font-family="Alata" font-size="19.403px" letter-spacing="-1.0822px" style="font-feature-settings:normal;font-variant-caps:normal;font-variant-ligatures:normal;font-variant-numeric:normal">o</tspan><tspan font-family="Alata" font-size="19.403px" letter-spacing="-1.307px" style="font-feature-settings:normal;font-variant-caps:normal;font-variant-ligatures:normal;font-variant-numeric:normal">g</tspan>y</tspan></text>
 </g>
 <g transform="translate(-24.891 -62.197)">
  <g transform="scale(.97261 1.0282)" stroke-width=".50218" aria-label="Highvoltage technology">
   <path d="m74.792 140.67h2.1731v5.8208h5.0253v-5.8208h2.1731v14.261h-2.1731v-6.6164h-5.0253v6.6164h-2.1731z"/>
   <path d="m85.857 146.02h2.1731v8.9059h-2.1731zm1.0672-1.6686q-0.60149 0-1.0089-0.40745-0.40746-0.40746-0.40746-1.009 0-0.54328 0.40746-0.93133 0.40746-0.38806 1.0089-0.38806 0.58208 0 0.98954 0.38806 0.40746 0.38805 0.40746 0.93133 0 0.60149-0.40746 1.009-0.38806 0.40745-0.98954 0.40745z"/>
   <path d="m93.934 159.58q-0.98954 0-1.9597-0.27164-0.95074-0.27164-1.3582-0.50447l0.46567-1.9403q1.2806 0.83432 2.794 0.83432 1.1642 0 1.9597-0.56268 0.79552-0.56268 0.81492-2.1925v-1.591q-0.40746 0.75671-1.3194 1.2612-0.91193 0.50447-2.0179 0.50447-1.1642 0-2.1343-0.56268-0.97014-0.58209-1.5328-1.6492-0.56268-1.0672-0.56268-2.4836 0-1.3582 0.52388-2.406 0.54328-1.0672 1.5328-1.6492 0.98954-0.58209 2.3089-0.58209 0.77611 0 1.4552 0.27164t1.1448 0.6791q0.48507 0.38805 0.64029 0.77611l0.0388-1.494h1.9791v8.8477q0 2.2701-1.1642 3.4925-1.1642 1.2224-3.6089 1.2224zm-0.03881-6.2283q1.106 0 1.8627-0.75671 0.75671-0.77611 0.75671-2.0179v-0.13582q0-0.83432-0.34925-1.494-0.34925-0.6597-0.95074-1.0284t-1.3194-0.36865q-1.2418 0-1.9209 0.81491-0.6791 0.79552-0.6791 2.0761 0 1.3 0.6597 2.1149 0.6791 0.79551 1.9403 0.79551z"/>
   <path d="m100.15 140.67h2.0373v5.3552l-0.0776 1.6492q0.36865-0.81491 1.1836-1.3388 0.81491-0.54328 1.9015-0.54328 1.3776 0 2.1149 0.58209 0.7373 0.56268 0.98954 1.591 0.25224 1.0283 0.25224 2.6776v4.288h-2.0761v-4.3074q0-1.1254-0.13582-1.7657-0.11642-0.64029-0.50448-0.97014-0.36865-0.32984-1.0866-0.32984-0.58209 0-1.1836 0.34925-0.58209 0.34925-0.97014 1.0284-0.38806 0.65969-0.38806 1.5716v4.4238h-2.0567z"/>
   <path d="m108.46 146.02h2.3866l1.9209 4.0164 0.62089 1.6104 0.62089-1.6104 1.9015-4.0164h2.3283l-4.6761 8.9059h-0.40746z"/>
   <path d="m122.16 155.12q-1.3776 0-2.4448-0.62089-1.0672-0.62089-1.6492-1.688-0.58208-1.0672-0.58208-2.3672 0-1.2806 0.56268-2.3477 0.58208-1.0672 1.6492-1.688 1.0672-0.62089 2.4642-0.62089 1.397 0 2.4448 0.62089 1.0672 0.62089 1.6298 1.688 0.58209 1.0672 0.58209 2.3477 0 1.3-0.58209 2.3672-0.58208 1.0672-1.6492 1.688-1.0478 0.62089-2.4254 0.62089zm0.0582-1.7074q1.1254 0 1.7657-0.83432 0.65969-0.83432 0.65969-2.0955t-0.6985-2.1149q-0.6985-0.87312-1.8433-0.87312-1.106 0-1.7851 0.85372-0.6597 0.85372-0.6597 2.1343 0 1.2418 0.71791 2.0955 0.7179 0.83432 1.8433 0.83432z"/>
   <path d="m127.89 140.67h2.0761v14.261h-2.0761z"/>
   <path d="m132.36 147.73h-1.5716v-1.7074h1.5716v-3.6283l2.1149-0.46567v4.094h2.0567v1.7074h-2.0567v7.1984h-2.1149z"/>
   <path d="m140.84 155.12q-1.203 0-2.2313-0.56268-1.009-0.58209-1.6298-1.6298-0.60148-1.0672-0.60148-2.4836 0-1.397 0.52387-2.4448 0.54328-1.0478 1.5328-1.6298 0.98955-0.58209 2.3283-0.58209 0.77611 0 1.4552 0.27164t1.1448 0.6791q0.46567 0.38805 0.62089 0.77611l0.0388-1.494h1.9985v8.9059h-1.9791l-0.0388-1.5716q-0.32985 0.6985-1.203 1.2418-0.87312 0.52388-1.9597 0.52388zm0.34925-1.7462q1.106 0 1.8627-0.75671 0.75671-0.77611 0.75671-2.0179v-0.13582q0-0.83432-0.34925-1.494-0.34925-0.65969-0.95074-1.0284-0.60149-0.36865-1.3194-0.36865-1.2418 0-1.9209 0.81492-0.67909 0.79551-0.67909 2.0761 0 1.3 0.65969 2.1149 0.6791 0.79552 1.9403 0.79552z"/>
   <path d="m151.83 159.58q-0.98955 0-1.9597-0.27164-0.95073-0.27164-1.3582-0.50447l0.46567-1.9403q1.2806 0.83432 2.794 0.83432 1.1642 0 1.9597-0.56268 0.79552-0.56268 0.81492-2.1925v-1.591q-0.40746 0.75671-1.3194 1.2612-0.91193 0.50447-2.0179 0.50447-1.1642 0-2.1343-0.56268-0.97014-0.58209-1.5328-1.6492t-0.56268-2.4836q0-1.3582 0.52387-2.406 0.54328-1.0672 1.5328-1.6492 0.98955-0.58209 2.3089-0.58209 0.77611 0 1.4552 0.27164 0.67909 0.27164 1.1448 0.6791 0.48507 0.38805 0.64029 0.77611l0.0388-1.494h1.9791v8.8477q0 2.2701-1.1642 3.4925-1.1642 1.2224-3.6089 1.2224zm-0.0388-6.2283q1.106 0 1.8627-0.75671 0.75671-0.77611 0.75671-2.0179v-0.13582q0-0.83432-0.34925-1.494-0.34925-0.6597-0.95074-1.0284t-1.3194-0.36865q-1.2418 0-1.9209 0.81491-0.67909 0.79552-0.67909 2.0761 0 1.3 0.65969 2.1149 0.6791 0.79551 1.9403 0.79551z"/>
   <path d="m162.16 155.12q-1.591 0-2.6582-0.62089-1.0672-0.64029-1.5716-1.688-0.50447-1.0672-0.50447-2.3283 0-1.4164 0.58208-2.4836 0.60149-1.0672 1.6492-1.6298 1.0478-0.58209 2.3671-0.58209 2.0567 0 3.0462 1.1448 1.009 1.1254 1.009 3.1821 0 0.52387-0.0582 1.0866h-6.4029q0.21343 1.1836 0.83432 1.7074 0.6403 0.52387 1.7657 0.52387 0.93133 0 1.5328-0.15522t1.106-0.42686l0.64029 1.494q-0.48507 0.31044-1.3194 0.54327-0.83432 0.23284-2.0179 0.23284zm1.8821-5.3746q0.0194-1.203-0.52387-1.688-0.54328-0.50447-1.5522-0.50447-2.0373 0-2.3477 2.1925z"/>
   <path d="m171.13 147.73h-1.5716v-1.7074h1.5716v-3.6283l2.1149-0.46567v4.094h2.0567v1.7074h-2.0567v7.1984h-2.1149z"/>
   <path d="m179.89 155.12q-1.591 0-2.6582-0.62089-1.0672-0.64029-1.5716-1.688-0.50448-1.0672-0.50448-2.3283 0-1.4164 0.58209-2.4836 0.60148-1.0672 1.6492-1.6298 1.0478-0.58209 2.3672-0.58209 2.0567 0 3.0462 1.1448 1.0089 1.1254 1.0089 3.1821 0 0.52387-0.0582 1.0866h-6.4029q0.21343 1.1836 0.83432 1.7074 0.64029 0.52387 1.7656 0.52387 0.93134 0 1.5328-0.15522 0.60149-0.15522 1.106-0.42686l0.6403 1.494q-0.48507 0.31044-1.3194 0.54327-0.83432 0.23284-2.0179 0.23284zm1.8821-5.3746q0.0194-1.203-0.52388-1.688-0.54328-0.50447-1.5522-0.50447-2.0373 0-2.3477 2.1925z"/>
   <path d="m188.82 155.12q-1.3194 0-2.3865-0.56268-1.0478-0.58209-1.6686-1.6492-0.62089-1.0866-0.62089-2.5418 0-1.3776 0.56268-2.4059 0.58208-1.0478 1.6104-1.6104 1.0478-0.56268 2.406-0.56268 1.0284 0 1.7656 0.27164 0.75671 0.25224 1.1836 0.64029l-0.93133 1.688q-0.81492-0.81492-1.8433-0.81492-1.2418 0-1.9015 0.75671-0.64029 0.75671-0.64029 2.0179 0 1.4358 0.65969 2.2313 0.6791 0.79552 1.8821 0.79552 0.60149 0 1.1642-0.17463 0.58208-0.17462 0.89253-0.40746l0.75671 1.4746q-0.42686 0.32984-1.203 0.60148-0.75671 0.25224-1.688 0.25224z"/>
   <path d="m192.39 140.67h2.0373v5.3552l-0.0776 1.6492q0.36865-0.81491 1.1836-1.3388 0.81492-0.54328 1.9015-0.54328 1.3776 0 2.1149 0.58209 0.73731 0.56268 0.98954 1.591 0.25224 1.0283 0.25224 2.6776v4.288h-2.0761v-4.3074q0-1.1254-0.13582-1.7657-0.11642-0.64029-0.50447-0.97014-0.36866-0.32984-1.0866-0.32984-0.58208 0-1.1836 0.34925-0.58208 0.34925-0.97014 1.0284-0.38806 0.65969-0.38806 1.5716v4.4238h-2.0567z"/>
   <path d="m202.11 146.02h2.0567l0.0194 1.6298q0.36865-0.81492 1.1642-1.3388 0.79551-0.52388 1.8627-0.52388 1.3776 0 2.1149 0.58209 0.73731 0.56268 0.98955 1.591 0.25223 1.0283 0.25223 2.6776v4.288h-2.0955v-4.2298q0-1.688-0.32985-2.4254-0.32984-0.75671-1.3582-0.75671-0.58209 0-1.1836 0.36865-0.60149 0.34925-1.009 1.0284-0.38806 0.6791-0.38806 1.591v4.4238h-2.0955z"/>
   <path d="m216.09 155.12q-1.3776 0-2.4448-0.62089-1.0672-0.62089-1.6492-1.688-0.58208-1.0672-0.58208-2.3672 0-1.2806 0.56268-2.3477 0.58208-1.0672 1.6492-1.688 1.0672-0.62089 2.4642-0.62089t2.4448 0.62089q1.0672 0.62089 1.6298 1.688 0.58208 1.0672 0.58208 2.3477 0 1.3-0.58208 2.3672-0.58209 1.0672-1.6492 1.688-1.0478 0.62089-2.4254 0.62089zm0.0582-1.7074q1.1254 0 1.7656-0.83432 0.6597-0.83432 0.6597-2.0955t-0.6985-2.1149q-0.6985-0.87312-1.8433-0.87312-1.106 0-1.7851 0.85372-0.65969 0.85372-0.65969 2.1343 0 1.2418 0.7179 2.0955 0.71791 0.83432 1.8433 0.83432z"/>
   <path d="m221.82 140.67h2.0761v14.261h-2.0761z"/>
   <path d="m229.66 155.12q-1.3776 0-2.4448-0.62089-1.0672-0.62089-1.6492-1.688-0.58209-1.0672-0.58209-2.3672 0-1.2806 0.56268-2.3477 0.58209-1.0672 1.6492-1.688t2.4642-0.62089q1.397 0 2.4448 0.62089 1.0672 0.62089 1.6298 1.688 0.58209 1.0672 0.58209 2.3477 0 1.3-0.58209 2.3672-0.58208 1.0672-1.6492 1.688-1.0478 0.62089-2.4254 0.62089zm0.0582-1.7074q1.1254 0 1.7657-0.83432 0.65969-0.83432 0.65969-2.0955t-0.6985-2.1149q-0.6985-0.87312-1.8433-0.87312-1.106 0-1.7851 0.85372-0.6597 0.85372-0.6597 2.1343 0 1.2418 0.71791 2.0955 0.7179 0.83432 1.8433 0.83432z"/>
   <path d="m239.79 159.58q-0.98954 0-1.9597-0.27164-0.95074-0.27164-1.3582-0.50447l0.46567-1.9403q1.2806 0.83432 2.794 0.83432 1.1642 0 1.9597-0.56268 0.79552-0.56268 0.81492-2.1925v-1.591q-0.40746 0.75671-1.3194 1.2612-0.91193 0.50447-2.0179 0.50447-1.1642 0-2.1343-0.56268-0.97014-0.58209-1.5328-1.6492t-0.56268-2.4836q0-1.3582 0.52387-2.406 0.54328-1.0672 1.5328-1.6492 0.98954-0.58209 2.3089-0.58209 0.77611 0 1.4552 0.27164t1.1448 0.6791q0.48507 0.38805 0.6403 0.77611l0.0388-1.494h1.9791v8.8477q0 2.2701-1.1642 3.4925-1.1642 1.2224-3.6089 1.2224zm-0.0388-6.2283q1.106 0 1.8627-0.75671 0.75671-0.77611 0.75671-2.0179v-0.13582q0-0.83432-0.34925-1.494-0.34925-0.6597-0.95074-1.0284-0.60148-0.36865-1.3194-0.36865-1.2418 0-1.9209 0.81491-0.6791 0.79552-0.6791 2.0761 0 1.3 0.65969 2.1149 0.6791 0.79551 1.9403 0.79551z"/>
   <path d="m248.5 155.2-3.6865-9.1775h2.3671l1.9015 5.6656 0.42686 1.3776 0.42686-1.3776 1.9985-5.6656h2.2895l-5.4716 13.795h-2.1731z"/>
  </g>
 </g>
 <g transform="translate(-24.891 -62.197)" display="none">
  <text transform="scale(1.0233 .97721)" x="69.949837" y="143.6783" fill="#000000" font-family="sans-serif" font-size="78.142px" letter-spacing="0px" stroke-width=".81398" word-spacing="0px" style="line-height:20.3496px" xml:space="preserve"><tspan x="69.949837" y="143.6783" font-family="Haettenschweiler" font-size="78.142px" letter-spacing=".81756px" stroke-width=".81398" style="font-feature-settings:normal;font-variant-caps:normal;font-variant-ligatures:normal;font-variant-numeric:normal">Picardi</tspan></text>
 </g>
 <g transform="translate(-24.891 -62.197)">
  <g transform="scale(1.0233 .97721)" stroke-width=".81398" aria-label="Picardi">
   <path d="m82.999 123.53v20.146h-11.714v-54.715h12.629q7.5166 0 11.141 1.9078 3.6629 1.9078 3.6629 7.7837v15.186q0 5.3799-2.9761 7.6311-2.9761 2.213-12.744 2.0604zm4.0063-10.722v-13.125q0-2.8998-4.0063-2.8998v18.925q4.0063 0 4.0063-2.8998z"/>
   <path d="m112.28 96.938h-10.874v-7.9745h10.874zm0 46.74h-10.874v-44.298h10.874z"/>
   <path d="m140.8 118.99h-10.836v-10.874q0-2.1749-1.8696-2.1749-1.9078 0-1.9078 2.1749v27.128q0 2.2512 1.9078 2.2512 1.8696 0 1.8696-2.2512v-10.722h10.836v10.798q0 8.9665-12.553 8.9665-12.897 0-12.897-9.3481v-26.518q0-9.3481 12.897-9.3481 12.553 0 12.553 8.9665z"/>
   <path d="m169.66 143.68h-9.6152v-1.717q-1.221 2.3275-6.9824 2.3275-8.8902 0-8.8902-6.9443v-8.8902q0-2.9761 2.1367-5.1891 2.1749-2.213 8.6994-5.5325 3.7774-1.9078 3.7774-3.0524v-6.5627q0-2.1749-1.8696-2.1749-2.1367 0-2.1367 5.3036 0 0.95389 0.11447 2.8235 0.15262 1.8696 0.15262 2.8235h-10.493v-8.852q0-8.9665 12.973-8.9665 12.133 0 12.133 9.3481zm-10.874-8.2797v-11.408q-3.7392 0.91573-3.7392 3.3577v8.0508q0 2.0222 1.9459 2.0222 1.7933 0 1.7933-2.0222z"/>
   <path d="m198.79 117.73h-10.874v-9.6152q0-2.0222-1.8696-2.0222t-1.8696 1.9459v35.637h-10.874v-44.298h10.874v1.4881q2.1749-1.7933 6.7154-1.7933 3.2432 0 5.5707 1.7551 2.3275 1.717 2.3275 4.5405z"/>
   <path d="m227.08 143.68h-8.2034l-0.91573-1.4881q-2.7853 2.0986-6.3338 2.0986-4.1589 0-7.0969-1.9459-2.8998-1.9459-2.8998-5.3036v-31.822q0-2.8235 2.2893-4.4642 2.3275-1.6788 5.6088-1.6788 4.5023 0 6.7154 1.6407v-11.752h10.836zm-10.836-8.2797v-27.51q0-1.9459-1.8696-1.9459-1.9078 0-1.9078 2.0222v27.434q0 2.0222 1.9078 2.0222 1.8696 0 1.8696-2.0222z"/>
   <path d="m240.98 96.938h-10.874v-7.9745h10.874zm0 46.74h-10.874v-44.298h10.874z"/>
  </g>
  <path transform="scale(.26458)" d="m190.91 240.46c-0.16815-0.29736-11.467 37.392-26.5 88.236h11.932c14.974-87.508 14.965-87.535 14.568-88.236zm-14.568 88.236c-1.0821 6.3238-1.6101 9.4202-2.8613 16.732-7.6144 44.498-13.862 81.378-13.883 81.955-0.0302 0.85149 3.0777-0.47326 16.551-7.0762 10.613-5.1977 16.652-7.8745 16.762-7.4297 0.0942 0.38264-3.3336 12.567-7.6172 27.08-4.2836 14.513-20.578 69.916-36.209 123.12-5.3086 18.068-8.3678 28.48-11.936 40.623h122.86v-275zm-39.193 275h-8.3144c-2.8067 16.4-5.465 32.019-8.1094 47.41-0.969 5.6397-1.5652 10.47-1.3242 10.732 0.469 0.51092-0.53575 4.0894 17.748-58.143zm-8.3144 0c11.043-64.526 22.119-129.56 22.064-129.79-0.0485-0.19616-7.6934 3.2753-16.99 7.7148l-16.904 8.0703 36.766-124.95c3.7604-12.78 7.2065-24.436 10.641-36.051h-64.406v275z" fill="#0000c8" stroke-width=".64184"/>
 </g>
</svg>
